<svg width="760" height="180" viewBox="0 0 760 180" fill="none" xmlns="http://www.w3.org/2000/svg" role="img" aria-labelledby="title desc">
  <title id="title">Esthi Header Logo</title>
  <desc id="desc">High contrast white Esthi logo for dark or blue headers.</desc>
  <g opacity="0.98">
    <rect x="18" y="18" width="144" height="144" rx="36" fill="white" fill-opacity="0.13" stroke="white" stroke-width="8"/>
    <path d="M61 55H114C120.627 55 126 60.373 126 67C126 73.627 120.627 79 114 79H83V90H108C114.627 90 120 95.373 120 102C120 108.627 114.627 114 108 114H83V125H117C123.627 125 129 130.373 129 137C129 143.627 123.627 149 117 149H61C54.373 149 49 143.627 49 137V67C49 60.373 54.373 55 61 55Z" fill="white"/>
    <path d="M121.8 34.5C143.7 37.5 155.9 54.6 149.1 72.9C143.8 87.3 127.6 94.6 113.8 88.7C113.9 69.6 118 51.6 121.8 34.5Z" fill="white" fill-opacity="0.92"/>
    <path d="M111 89C124.5 77.7 135.2 65 143.5 48.5" stroke="#1e3a5f" stroke-opacity="0.45" stroke-width="5" stroke-linecap="round"/>
  </g>
  <text x="196" y="113" font-family="Inter, ui-sans-serif, system-ui, -apple-system, BlinkMacSystemFont, 'Segoe UI', sans-serif" font-size="82" font-weight="800" letter-spacing="-2.5" fill="white">Esthi</text>
  <text x="201" y="145" font-family="Inter, ui-sans-serif, system-ui, -apple-system, BlinkMacSystemFont, 'Segoe UI', sans-serif" font-size="22" font-weight="600" letter-spacing="2.6" fill="white" fill-opacity="0.78">ESTHETICS STUDY APP</text>
</svg>
